<?xml version="1.0" encoding="utf-8"?>
<!-- Generator: Adobe Illustrator 16.0.0, SVG Export Plug-In . SVG Version: 6.00 Build 0)  -->
<!DOCTYPE svg PUBLIC "-//W3C//DTD SVG 1.1//EN" "http://www.w3.org/Graphics/SVG/1.1/DTD/svg11.dtd">
<svg version="1.1" id="Layer_1" xmlns="http://www.w3.org/2000/svg" xmlns:xlink="http://www.w3.org/1999/xlink" x="0px" y="0px"
	 width="512px" height="512px" viewBox="0 0 512 512" enable-background="new 0 0 512 512" xml:space="preserve">
<g>
	<g>
		<g>
			<g>
				<path fill="#F2CAB8" d="M7.921,256.002c0-137.021,111.07-248.084,248.078-248.084s248.08,111.063,248.08,248.084
					c0,137.005-111.072,248.079-248.08,248.079S7.921,393.007,7.921,256.002z"/>
			</g>
		</g>
	</g>
</g>
<g>
	<g>
		<g>
			<g>
				<path fill="#202121" d="M333.698,374.705c0,19.192-9.762,28.953-28.951,28.95l-98.438,0.003
					c-19.188,0-28.959-9.761-28.959-28.953V137.291c0-19.187,9.771-28.948,28.959-28.948h98.438
					c19.189,0,28.951,9.762,28.951,28.948V374.705z"/>
			</g>
			<g>
				<g>
					<path fill="#121212" d="M267.534,383.388c0,6.4-5.186,11.583-11.578,11.583c-6.4,0-11.586-5.183-11.586-11.583
						c0-6.391,5.186-11.582,11.586-11.582C262.349,371.806,267.534,376.997,267.534,383.388z"/>
				</g>
				<g>
					<path fill="#202121" d="M257.667,388.059h-3.416c-0.803,0-1.553-0.312-2.115-0.879c-0.553-0.561-0.854-1.303-0.848-2.091
						v-3.411c0-1.635,1.328-2.964,2.963-2.964h3.416c1.635,0,2.959,1.329,2.959,2.964v3.421
						C260.626,386.732,259.302,388.059,257.667,388.059z M254.251,380.672c-0.553,0-1.002,0.452-1.002,1.006v3.421
						c-0.002,0.271,0.096,0.515,0.279,0.703c0.193,0.193,0.451,0.298,0.723,0.298h3.416c0.553,0,1-0.449,1-1.001v-3.421
						c0-0.554-0.447-1.006-1-1.006H254.251z"/>
				</g>
			</g>
			<g>
				<path d="M273.862,130.053c0,1.867-1.512,3.382-3.371,3.382h-29.914c-1.867,0-3.393-1.515-3.393-3.382l0,0
					c0-1.866,1.525-3.374,3.393-3.374h29.914C272.351,126.68,273.862,128.187,273.862,130.053L273.862,130.053z"/>
			</g>
			<g>
				<rect x="184.593" y="145.255" fill="#D8DBBA" width="141.141" height="215.689"/>
			</g>
		</g>
	</g>
	<g>
		<path fill="#DB2A2A" d="M373.761,326.078c0,5.368-4.35,9.724-9.725,9.724l0,0c-5.369,0-9.715-4.355-9.715-9.724V185.631
			c0-5.375,4.346-9.723,9.715-9.723l0,0c5.375,0,9.725,4.349,9.725,9.723V326.078z"/>
	</g>
	<g>
		<path fill="#DB2A2A" d="M407.265,197.508c-5.369,0-9.73,4.356-9.73,9.723v97.239c0,5.374,4.361,9.727,9.73,9.727
			c5.363,0,9.723-4.353,9.723-9.727v-97.239C416.987,201.865,412.628,197.508,407.265,197.508z"/>
	</g>
	<g>
		<path fill="#DB2A2A" d="M450.478,219.121c-5.373,0-9.729,4.353-9.729,9.724v54.023c0,5.367,4.355,9.724,9.729,9.724
			c5.369,0,9.723-4.357,9.723-9.724v-54.023C460.2,223.474,455.847,219.121,450.478,219.121z"/>
	</g>
	<g>
		<g>
			<path fill="#DB2A2A" d="M138.228,326.078c0,5.368,4.357,9.724,9.729,9.724l0,0c5.367,0,9.727-4.355,9.727-9.724V185.631
				c0-5.375-4.359-9.723-9.727-9.723l0,0c-5.371,0-9.729,4.349-9.729,9.723V326.078z"/>
		</g>
		<g>
			<path fill="#DB2A2A" d="M104.739,197.508c5.381,0,9.727,4.356,9.727,9.723v97.239c0,5.374-4.346,9.727-9.727,9.727
				c-5.369,0-9.721-4.353-9.721-9.727v-97.239C95.019,201.865,99.37,197.508,104.739,197.508z"/>
		</g>
		<g>
			<path fill="#DB2A2A" d="M61.519,219.121c5.369,0,9.729,4.353,9.729,9.724v54.023c0,5.367-4.359,9.724-9.729,9.724
				c-5.361,0-9.719-4.357-9.719-9.724v-54.023C51.8,223.474,56.157,219.121,61.519,219.121z"/>
		</g>
	</g>
</g>
<g>
	<g>
		<path fill="#DB2A2A" d="M280.304,210.077c-9.395,0-18.123,4.58-23.373,12.253l-1.088,1.377l-0.719-0.922
			c-5.186-7.96-13.934-12.708-23.424-12.708c-16.197,0-27.953,11.755-27.953,27.948c0,23.915,43.287,59.154,46.443,61.693
			c1.492,1.419,3.443,2.204,5.514,2.204c2.068,0,4.012-0.785,5.514-2.211c3.158-2.552,47.035-38.353,47.035-61.687
			C308.253,221.833,296.493,210.077,280.304,210.077z"/>
	</g>
	<g>
		<path fill="#D61E1E" d="M255.843,223.707l-0.719-0.922c-5.186-7.96-13.934-12.708-23.424-12.708
			c-16.197,0-27.953,11.755-27.953,27.948c0,23.915,43.287,59.154,46.443,61.693c1.492,1.419,3.443,2.204,5.514,2.204
			L255.843,223.707z"/>
	</g>
</g>
<g>
	<g>
		<path fill="#D63636" d="M260.141,241.406c-10.057,3.991-14.307,14.848-13.5,25.094c0.449,5.757,9.496,5.99,9.039,0.177
			c-0.367-4.629-0.039-9.608,3.055-13.348c0.924-1.114,1.918-1.987,2.924-2.64c0.52-0.334,2.926-1.397,0.717-0.52
			C267.711,248.054,265.561,239.258,260.141,241.406L260.141,241.406z"/>
	</g>
</g>
</svg>
